<?xml version="1.0" standalone="no"?>
<!DOCTYPE svg PUBLIC "-//W3C//DTD SVG 20010904//EN"
 "http://www.w3.org/TR/2001/REC-SVG-20010904/DTD/svg10.dtd">
<svg version="1.0" xmlns="http://www.w3.org/2000/svg"
 width="502.000000pt" height="502.000000pt" viewBox="0 0 502.000000 502.000000"
 preserveAspectRatio="xMidYMid meet">
<metadata>
Created by potrace 1.11, written by Peter Selinger 2001-2013
</metadata>
<g transform="translate(0.000000,502.000000) scale(0.100000,-0.100000)"
fill="#000000" stroke="none">
<path d="M2340 4316 c-47 -4 -86 -9 -88 -11 -1 -1 41 -92 94 -201 53 -109 122
-253 154 -319 32 -66 99 -205 150 -310 51 -104 109 -226 130 -270 21 -44 90
-187 153 -317 103 -211 117 -236 136 -231 26 7 26 18 2 85 -11 29 -38 105 -59
168 -22 63 -92 264 -155 445 -64 182 -166 475 -227 652 l-112 323 -47 -3 c-25
-1 -84 -6 -131 -11z"/>
<path d="M3105 4183 c2 -21 6 -94 10 -163 3 -69 8 -147 10 -175 2 -27 7 -106
10 -175 3 -69 8 -147 10 -175 2 -27 7 -108 10 -180 4 -71 8 -146 10 -165 2
-19 7 -102 10 -185 4 -82 9 -156 10 -165 2 -8 4 -36 4 -62 1 -44 3 -48 26 -48
14 0 25 6 26 13 1 6 2 26 4 42 1 17 6 93 10 170 4 77 8 156 10 175 2 19 6 100
10 180 3 80 8 156 10 170 2 14 7 88 10 165 4 77 8 156 10 175 2 19 6 100 10
180 4 80 9 147 10 150 9 15 -19 34 -104 70 -115 50 -121 50 -116 3z"/>
<path d="M1525 4030 c-50 -33 -101 -68 -113 -78 l-24 -18 39 -34 c21 -18 72
-63 113 -100 41 -37 145 -129 230 -205 85 -76 189 -168 230 -205 41 -37 140
-125 220 -196 80 -71 150 -133 156 -139 6 -5 41 -37 79 -70 37 -33 77 -69 89
-80 30 -27 159 -142 284 -254 100 -89 105 -92 123 -75 19 17 19 18 -9 48 -16
17 -86 96 -157 176 -158 179 -354 399 -365 410 -3 3 -39 43 -80 90 -112 126
-133 150 -155 174 -11 12 -139 155 -284 319 -145 163 -269 297 -276 297 -6 0
-51 -27 -100 -60z"/>
<path d="M3745 3830 c-14 -23 -408 -1160 -404 -1164 2 -2 13 -6 25 -10 17 -5
25 4 57 71 20 43 84 177 143 298 58 121 145 299 191 395 47 96 96 198 108 226
l23 50 -69 72 c-37 39 -71 67 -74 62z"/>
<path d="M926 3388 c-22 -34 -93 -189 -101 -219 -6 -25 -3 -27 82 -57 232 -83
1929 -672 1941 -675 8 -1 18 8 23 20 7 18 2 24 -29 39 -20 9 -156 75 -301 146
-145 70 -265 128 -266 128 -1 0 -114 54 -251 121 -137 67 -294 143 -349 169
-55 26 -190 92 -300 145 -254 123 -425 205 -430 205 -3 0 -11 -10 -19 -22z"/>
<path d="M4119 3333 c-3 -9 -39 -50 -164 -187 -6 -6 -80 -90 -165 -186 -85
-96 -157 -177 -160 -180 -30 -28 -160 -180 -160 -187 0 -6 6 -16 14 -22 12
-10 31 2 103 65 163 144 258 229 268 240 5 6 66 60 135 120 68 60 143 127 167
149 l42 40 -27 60 c-36 79 -49 100 -53 88z"/>
<path d="M4165 2774 c-60 -29 -221 -108 -357 -174 -137 -66 -248 -124 -248
-129 0 -5 3 -16 6 -24 6 -17 -6 -20 434 133 113 40 231 81 263 92 l58 20 -6
37 c-13 83 -18 101 -29 100 -6 0 -60 -25 -121 -55z"/>
<path d="M705 2387 c7 -87 24 -209 30 -216 5 -4 125 -2 185 4 19 2 96 6 170
10 74 3 151 8 170 10 19 2 96 6 170 10 74 3 160 8 190 10 30 2 102 7 160 10
58 3 139 7 180 10 41 3 118 7 170 10 52 3 131 8 175 10 139 9 216 14 359 21
178 8 170 7 174 36 3 24 1 25 -55 27 -32 1 -74 4 -93 6 -19 2 -96 6 -170 10
-74 3 -162 8 -195 10 -76 5 -226 14 -335 20 -175 10 -277 15 -345 20 -97 6
-221 13 -350 20 -60 4 -137 8 -170 10 -33 2 -112 7 -175 10 -63 3 -146 8 -183
10 l-68 4 6 -72z"/>
<path d="M4248 2375 c-3 -2 -108 -8 -358 -21 -58 -3 -121 -7 -140 -9 -19 -2
-62 -4 -95 -4 -57 -1 -61 -3 -63 -25 -2 -31 9 -33 193 -41 77 -4 154 -8 170
-10 17 -2 95 -6 175 -10 80 -4 147 -9 150 -11 16 -8 28 17 35 72 l7 61 -36 0
c-20 0 -37 -1 -38 -2z"/>
<path d="M2725 2145 c-66 -24 -172 -61 -235 -83 -63 -22 -263 -92 -445 -155
-181 -64 -488 -170 -681 -237 -193 -67 -357 -126 -364 -130 -10 -6 1 -28 43
-87 32 -43 70 -92 85 -110 l28 -32 105 51 c57 27 149 71 204 98 55 26 195 94
310 150 116 56 255 124 310 150 55 26 199 96 320 154 121 59 277 135 347 168
121 59 126 62 115 85 -5 12 -13 23 -16 22 -3 0 -60 -20 -126 -44z"/>
<path d="M3566 2174 c-11 -30 -6 -35 87 -78 50 -24 190 -91 311 -150 120 -58
222 -106 227 -106 8 0 52 110 46 116 -2 2 -82 31 -178 65 -96 33 -243 85 -328
115 -84 30 -155 54 -156 54 -2 0 -6 -7 -9 -16z"/>
<path d="M2885 2022 c-22 -21 -105 -96 -185 -166 -80 -71 -181 -161 -225 -201
-81 -73 -559 -498 -635 -565 -45 -40 -164 -147 -177 -159 -13 -13 -10 -17 23
-34 22 -11 75 -35 119 -54 l80 -33 18 23 c11 12 40 45 65 72 26 28 94 105 152
170 58 66 114 129 125 140 11 12 46 50 77 86 31 35 189 213 351 394 272 305
293 331 279 348 -20 23 -21 23 -67 -21z"/>
<path d="M3482 2048 c-16 -16 -15 -35 1 -45 6 -4 61 -64 122 -133 60 -69 114
-130 120 -136 29 -32 166 -185 205 -230 25 -29 47 -53 50 -53 5 -1 71 98 74
111 1 6 -62 64 -314 287 -41 36 -81 73 -90 81 -35 34 -148 130 -152 130 -2 0
-9 -5 -16 -12z"/>
<path d="M3042 1958 c-7 -7 -12 -15 -12 -19 0 -3 -48 -105 -106 -225 -444
-917 -484 -1000 -484 -1008 0 -3 49 -6 109 -6 l109 0 30 83 c87 243 402 1154
402 1164 0 6 -7 14 -16 17 -20 8 -18 8 -32 -6z"/>
<path d="M3351 1961 c-11 -7 4 -60 82 -282 52 -151 116 -333 141 -406 25 -73
51 -144 56 -158 l10 -26 59 51 c51 44 59 55 51 73 -4 12 -62 132 -127 267 -66
135 -146 300 -178 368 -33 67 -64 122 -70 122 -5 0 -16 -4 -24 -9z"/>
<path d="M3202 1931 c-6 -3 -13 -53 -16 -111 -4 -58 -9 -139 -11 -180 -3 -41
-7 -118 -10 -170 -3 -52 -7 -129 -10 -170 -12 -190 -15 -233 -21 -359 l-7
-133 24 7 c13 4 53 20 87 36 l64 29 -7 132 c-3 73 -8 149 -10 168 -2 19 -7
100 -10 180 -4 80 -8 159 -10 175 -2 17 -7 98 -10 180 -4 83 -9 157 -10 165
-2 8 -4 24 -4 36 -1 20 -20 27 -39 15z"/>
</g>
</svg>
